<svg xmlns="http://www.w3.org/2000/svg" viewBox="35.102 39 250.724 271.77" role="img" aria-labelledby="title-B desc-B">
  <title id="title-B">Versierde hoofdletter B</title>
  <desc id="desc-B">Vrije penkrul-initiaal voor een hoofdstukopening.</desc>
  <path data-role="glyph" d="M79.47619047619048 260.8168498168498Q75.56410256410257 260.8168498168498 73.28205128205128 259.83882783882785Q71.0 258.8608058608059 71.0 256.9047619047619Q71.0 252.66666666666669 80.45421245421245 250.71062271062272Q92.51648351648352 248.10256410256412 98.38461538461539 243.37545787545787Q104.25274725274726 238.64835164835165 104.25274725274726 227.23809523809524V79.88278388278388Q104.25274725274726 68.7985347985348 99.6886446886447 63.58241758241759Q95.12454212454213 58.36630036630038 83.06227106227107 56.73626373626374Q78.17216117216117 56.08424908424908 75.8901098901099 54.29120879120879Q73.60805860805861 52.498168498168496 73.60805860805861 50.216117216117226Q73.60805860805861 48.260073260073256 75.8901098901099 47.11904761904762Q78.17216117216117 45.978021978021985 82.08424908424908 45.978021978021985Q91.53846153846155 45.978021978021985 97.08058608058609 46.304029304029314Q102.62271062271063 46.63003663003664 107.67582417582418 46.793040293040306Q112.72893772893772 46.95604395604397 119.57509157509158 46.95604395604397Q126.42124542124543 46.95604395604397 131.47435897435898 46.46703296703298Q136.52747252747253 45.978021978021985 142.8846153846154 45.48901098901099Q149.24175824175825 45.0 159.34798534798534 45.0Q197.8168498168498 45.0 217.05128205128204 55.92124542124543Q236.28571428571428 66.84249084249086 236.28571428571428 93.57509157509159Q236.28571428571428 104.33333333333334 232.21062271062272 112.80952380952382Q228.13553113553115 121.2857142857143 223.24542124542126 125.84981684981685Q218.02930402930406 130.73992673992674 213.3021978021978 133.6739926739927Q208.57509157509156 136.60805860805863 200.75091575091574 139.21611721611723Q199.44688644688642 139.54212454212455 199.44688644688642 140.6831501831502Q199.44688644688642 141.82417582417582 200.75091575091574 142.47619047619048Q208.57509157509156 144.75824175824175 216.8882783882784 148.1813186813187Q225.20146520146523 151.60439560439562 232.69963369963372 157.30952380952382Q240.19780219780222 163.01465201465203 244.5989010989011 172.30586080586082Q249.0 181.5970695970696 249.0 195.94139194139194Q249.0 213.8717948717949 243.2948717948718 224.467032967033Q237.5897435897436 235.06227106227107 229.76556776556777 240.60439560439562Q221.94139194139194 246.14652014652015 215.09523809523807 249.73260073260073Q204.66300366300368 254.94871794871796 191.2967032967033 257.7197802197802Q177.93040293040292 260.4908424908425 159.02197802197804 260.4908424908425Q152.5018315018315 260.4908424908425 143.21062271062272 259.83882783882785Q133.91941391941393 259.1868131868132 123.16117216117216 259.1868131868132Q115.33699633699634 259.1868131868132 108.65384615384616 259.51282051282055Q101.97069597069597 259.83882783882785 95.12454212454213 260.32783882783883Q88.27838827838828 260.8168498168498 79.47619047619048 260.8168498168498ZM161.95604395604397 245.49450549450552Q174.996336996337 245.49450549450552 185.91758241758242 239.3003663003663Q196.83882783882785 233.10622710622712 203.52197802197804 222.1849816849817Q210.20512820512823 211.26373626373626 210.20512820512823 197.8974358974359Q210.20512820512823 185.50915750915752 206.45604395604397 177.52197802197804Q202.7069597069597 169.53479853479854 197.8168498168498 164.64468864468864Q192.9267399267399 159.75457875457874 189.01465201465203 157.47252747252747Q185.1025641025641 154.86446886446888 176.95238095238096 152.25641025641028Q168.8021978021978 149.64835164835165 155.76190476190476 149.64835164835165Q147.28571428571428 149.64835164835165 142.8846153846154 153.23443223443223Q138.4835164835165 156.82051282051282 138.4835164835165 161.05860805860806V223.32600732600733Q138.4835164835165 235.71428571428572 144.67765567765568 240.60439560439562Q150.87179487179486 245.49450549450552 161.95604395604397 245.49450549450552ZM152.82783882783883 138.56410256410257Q161.3040293040293 138.56410256410257 170.26923076923077 136.60805860805863Q179.23443223443223 134.65201465201466 188.03663003663004 129.10989010989013Q191.2967032967033 127.15384615384616 196.1868131868132 119.81868131868133Q201.0769230769231 112.4835164835165 201.0769230769231 98.79120879120879Q201.0769230769231 87.70695970695971 197.65384615384616 78.08974358974359Q194.23076923076923 68.47252747252747 184.93956043956044 62.44139194139194Q175.64835164835165 56.41025641025641 158.3699633699634 56.41025641025641Q146.63369963369962 56.41025641025641 142.55860805860806 59.99633699633699Q138.4835164835165 63.58241758241758 138.4835164835165 70.75457875457877V126.5018315018315Q138.4835164835165 134.32600732600733 143.6996336996337 136.44505494505495Q148.91575091575092 138.56410256410257 152.82783882783883 138.56410256410257Z" fill="#143247"/>
  <path data-role="flourish" d="M 160.0 257.8 C 184.0 274.8, 267.0 266.8, 278.0 286.8 C 288.0 306.8, 254.0 312.8, 247.0 290.8 C 242.0 273.8, 267.0 275.8, 261.0 293.8 C 252.0 317.8, 135.0 288.8, 56.0 300.8 C 37.0 309.8, 36.0 281.8, 54.0 286.8 M 81.0 58.0 C 51.0 42.0, 41.0 67.0, 59.0 75.0" fill="none" stroke="#143247" stroke-width="4.2" stroke-linecap="round" stroke-linejoin="round"/>
  <path data-role="accent" d="M 126.0 276.8 C 148.0 291.8, 177.0 287.8, 200.0 274.8" fill="none" stroke="#cba449" stroke-width="2.6" stroke-linecap="round"/>
</svg>
