<svg xmlns="http://www.w3.org/2000/svg" viewBox="0 0 320 400" role="img" aria-labelledby="title-M desc-M">
  <title id="title-M">Versierde hoofdletter M</title>
  <desc id="desc-M">Vrije penkrul-initiaal voor een hoofdstukopening.</desc>
  <path data-role="glyph" d="M76.82242990654206 182.45093457943923Q74.11915887850468 182.45093457943923 72.55957943925233 181.93107476635512Q71.0 181.411214953271 71.0 179.9556074766355Q71.0 178.5 72.76752336448598 177.77219626168224Q74.53504672897196 177.04439252336448 77.65420560747664 176.2126168224299Q82.64485981308411 174.96495327102804 86.07593457943925 171.01401869158877Q89.50700934579439 167.0630841121495 90.54672897196262 159.99299065420558Q92.62616822429906 144.39719626168224 94.28971962616822 128.4894859813084Q95.95327102803739 112.58177570093457 97.20093457943926 98.12967289719626Q98.44859813084112 83.67757009345793 98.8644859813084 72.44859813084112Q98.8644859813084 70.9929906542056 98.8644859813084 69.12149532710279Q98.8644859813084 67.25 98.65654205607477 65.58644859813083Q98.65654205607477 63.29906542056074 97.92873831775702 61.32359813084111Q97.20093457943926 59.34813084112149 94.91355140186916 57.89252336448598Q91.58644859813084 55.18925233644859 88.25934579439252 54.045560747663544Q84.9322429906542 52.9018691588785 80.77336448598132 52.070093457943926Q78.48598130841123 51.65420560747663 77.13434579439253 50.51051401869158Q75.78271028037383 49.366822429906534 75.78271028037383 47.91121495327101Q75.78271028037383 46.03971962616822 77.65420560747664 45.623831775700936Q79.52570093457945 45.20794392523365 82.43691588785047 45.20794392523365Q84.9322429906542 45.20794392523365 89.29906542056075 45.415887850467286Q93.6658878504673 45.62383177570092 98.86448598130842 45.935747663551396Q104.06308411214954 46.24766355140187 108.74182242990655 46.45560747663551Q113.42056074766356 46.66355140186914 116.53971962616822 46.66355140186914Q117.99532710280374 46.66355140186914 119.24299065420561 47.59929906542055Q120.49065420560748 48.53504672897196 120.90654205607477 50.198598130841106Q121.94626168224299 53.94158878504672 123.08995327102804 57.892523364485974Q124.23364485981308 61.84345794392523 125.6892523364486 66.00233644859813L157.7126168224299 145.6448598130841Q158.33644859813086 146.89252336448598 159.68808411214954 147.10046728971963Q161.03971962616822 147.30841121495325 161.66355140186914 146.0607476635514L198.67757009345792 66.41822429906541Q199.92523364485982 61.63551401869158 200.86098130841123 57.164719626168214Q201.79672897196264 52.69392523364485 202.62850467289718 49.574766355140184Q203.25233644859816 46.87149532710279 205.12383177570092 46.87149532710279H213.02570093457945Q220.09579439252337 46.87149532710279 227.99766355140187 45.935747663551396Q235.89953271028037 45.0 240.05841121495325 45.0Q241.51401869158877 45.0 243.17757009345794 45.51985981308411Q244.84112149532712 46.03971962616822 244.84112149532712 47.49532710280374Q244.84112149532712 49.158878504672884 243.59345794392524 49.99065420560747Q242.34579439252337 50.822429906542055 239.64252336448595 51.862149532710276Q237.3551401869159 52.69392523364485 234.6518691588785 53.733644859813076Q231.9485981308411 54.773364485981304 229.66121495327104 55.813084112149525Q226.3341121495327 57.268691588785046 224.4626168224299 59.660046728971956Q222.59112149532712 62.051401869158866 222.79906542056074 66.00233644859813Q222.79906542056074 80.7663551401869 223.4228971962617 92.93107476635512Q224.04672897196264 105.09579439252336 224.56658878504675 116.11682242990653Q225.08644859813086 127.13785046728971 225.91822429906543 138.15887850467288Q226.75 149.17990654205607 227.37383177570092 161.65654205607476Q227.78971962616822 167.68691588785046 231.74065420560748 171.11799065420558Q235.69158878504675 174.54906542056074 242.9696261682243 176.00467289719626Q245.88084112149534 176.62850467289718 247.44042056074767 177.46028037383178Q249.0 178.29205607476635 249.0 179.9556074766355Q249.0 181.20327102803736 247.54439252336448 181.82710280373828Q246.08878504672896 182.45093457943923 243.59345794392522 182.45093457943923Q238.3948598130841 182.45093457943923 234.02803738317758 182.13901869158877Q229.66121495327104 181.8271028037383 225.39836448598132 181.61915887850466Q221.1355140186916 181.411214953271 216.5607476635514 181.411214953271Q212.40186915887853 181.411214953271 208.86682242990656 181.61915887850466Q205.3317757009346 181.8271028037383 201.38084112149534 182.13901869158877Q197.42990654205607 182.45093457943923 192.0233644859813 182.45093457943923Q189.73598130841123 182.45093457943923 188.1764018691589 181.93107476635512Q186.61682242990656 181.411214953271 186.61682242990656 179.9556074766355Q186.61682242990656 178.5 188.1764018691589 177.46028037383178Q189.73598130841123 176.42056074766353 192.64719626168224 176.00467289719626Q199.3014018691589 174.96495327102804 201.79672897196264 171.74182242990653Q204.29205607476638 168.51869158878503 204.29205607476638 161.65654205607476Q204.0841121495327 147.30841121495325 203.77219626168224 135.03971962616822Q203.46028037383178 122.77102803738316 202.83644859813083 110.81425233644859Q202.21261682242988 98.857476635514 201.58878504672896 85.54906542056074Q201.58878504672896 83.67757009345793 200.65303738317758 83.78154205607476Q199.7172897196262 83.88551401869158 198.67757009345792 85.75700934579439L153.76168224299067 182.24299065420558Q153.13785046728972 183.90654205607476 151.47429906542055 183.80257009345792Q149.8107476635514 183.6985981308411 149.3948598130841 182.24299065420558Q140.4532710280374 157.91355140186914 130.57593457943926 134.31191588785046Q120.69859813084113 110.71028037383176 109.8855140186916 84.9252336448598Q109.26168224299066 83.67757009345793 108.11799065420561 83.88551401869158Q106.97429906542057 84.09345794392523 106.76635514018692 85.54906542056074Q105.31074766355141 98.64953271028037 104.16705607476636 110.91822429906541Q103.02336448598132 123.18691588785046 102.50350467289721 135.24766355140184Q101.9836448598131 147.30841121495325 101.9836448598131 160.20093457943923Q101.9836448598131 166.0233644859813 105.62266355140187 170.286214953271Q109.26168224299066 174.54906542056074 116.12383177570094 176.00467289719626Q119.24299065420561 176.62850467289718 121.0105140186916 177.46028037383178Q122.77803738317758 178.29205607476635 122.77803738317758 179.9556074766355Q122.77803738317758 181.20327102803736 121.11448598130842 181.82710280373828Q119.45093457943926 182.45093457943923 116.95560747663552 182.45093457943923Q111.34112149532712 182.45093457943923 108.42990654205607 182.13901869158877Q105.51869158878505 181.8271028037383 103.23130841121495 181.72313084112147Q100.94392523364486 181.61915887850466 96.78504672897196 181.61915887850466Q92.83411214953271 181.61915887850466 89.81892523364486 181.8271028037383Q86.80373831775701 182.03504672897196 83.78855140186917 182.24299065420558Q80.77336448598132 182.45093457943923 76.82242990654206 182.45093457943923Z" fill="#143247"/>
  <path data-role="flourish" d="M 160.0 180.8 C 137.0 198.8, 53.0 188.8, 43.0 208.8 C 33.0 229.8, 67.0 234.8, 74.0 212.8 C 79.0 195.8, 54.0 197.8, 59.0 215.8 C 67.0 241.8, 195.0 209.8, 268.0 222.8 C 282.0 231.8, 284.0 203.8, 266.0 208.8 M 240.0 57.0 C 270.0 41.0, 280.0 66.0, 262.0 74.0" fill="none" stroke="#143247" stroke-width="4.2" stroke-linecap="round" stroke-linejoin="round"/>
  <path data-role="accent" d="M 135.0 199.8 C 148.0 212.8, 177.0 210.8, 191.0 197.8" fill="none" stroke="#cba449" stroke-width="2.6" stroke-linecap="round"/>
</svg>
